rec1_002.mot
nRows=25
nColumns=19

name rec1_002.mot
datacolumns 19
datarows 25
range 5.0020391412 5.0500395102
endheader
time	ground_force_vx	ground_force_vy	ground_force_vz	ground_force_px	ground_force_py	ground_force_pz	1_ground_force_vx	1_ground_force_vy	1_ground_force_vz	1_ground_force_px	1_ground_force_py	1_ground_force_pz	ground_torque_x	ground_torque_y	ground_torque_z	1_ground_torque_x	1_ground_torque_y	1_ground_torque_z	
        5.0020391412	       -0.0004958673	        5.7134284862	       -0.4668273647	       -0.7000000000	       -0.0180000000	        0.5600000000	       69.4874989967	      696.8062886539	       47.9700763780	       -0.7000000000	       -0.0180000000	       -0.5600000000	        1.6250282659	       -0.7064937723	        3.9129349509	     -313.1789085729	      -14.5333737141	      606.7100273525	
        5.0040388766	        0.0186247372	        6.0270178709	       -0.5087014109	       -0.7000000000	       -0.0180000000	        0.5600000000	       70.7996004564	      698.7926467467	       47.9392094909	       -0.7000000000	       -0.0180000000	       -0.5600000000	        1.7728061579	       -0.6882958220	        4.3044441740	     -314.0007430276	      -13.9024901422	      607.2647114435	
        5.0060392520	        0.0824115550	        6.4993296384	       -0.5685316518	       -0.7000000000	       -0.0180000000	        0.5600000000	       72.1507646385	      700.6914104650	       47.9296976042	       -0.7000000000	       -0.0180000000	       -0.5600000000	        1.9980988083	       -0.6646671219	        4.9089420674	     -314.7797801004	      -13.2683643353	      607.7340299895	
        5.0080389072	        0.2195156237	        7.1878550967	       -0.6510327579	       -0.7000000000	       -0.0180000000	        0.5600000000	       73.5394318865	      702.4879817072	       47.9471848123	       -0.7000000000	       -0.0180000000	       -0.5600000000	        2.3290275523	       -0.6428655374	        5.8033100690	     -315.5095952791	      -12.6353856033	      608.1057239339	
        5.0100392027	        0.4651389475	        8.1618418672	       -0.7601949672	       -0.7000000000	       -0.0180000000	        0.5600000000	       74.9636671571	      704.1686910739	       47.9969404547	       -0.7000000000	       -0.0180000000	       -0.5600000000	        2.7991886716	       -0.6338142809	        7.0793572084	     -316.1844056173	      -12.0077901582	      608.3683422669	
        5.0120389781	        0.8584909749	        9.5017025414	       -0.8988324922	       -0.7000000000	       -0.0180000000	        0.5600000000	       76.4214206895	      705.7215829701	       48.0837638751	       -0.7000000000	       -0.0180000000	       -0.5600000000	        3.4474836221	       -0.6513718255	        8.8429962626	     -316.7992580541	      -11.3897971467	      608.5121460979	
        5.0140392734	        1.4399633715	       11.2965364675	       -1.0677948264	       -0.7000000000	       -0.0180000000	        0.5600000000	       77.9107091727	      707.1365680503	       48.2116173800	       -0.7000000000	       -0.0180000000	       -0.5600000000	        4.3171556536	       -0.7127295327	       11.2113659327	     -317.3499691455	      -10.7854072534	      608.5291438305	
        5.0160390488	        2.2486504299	       13.6405274766	       -1.2647953816	       -0.7000000000	       -0.0180000000	        0.5600000000	       79.4296972150	      708.4049792482	       48.3832783121	       -0.7000000000	       -0.0180000000	       -0.5600000000	        5.4541156184	       -0.8389151888	       14.3083760353	     -317.8329256583	      -10.1980196244	      608.4124412452	
        5.0180393842	        3.3200596923	       16.6290261038	       -1.4832283112	       -0.7000000000	       -0.0180000000	        0.5600000000	       80.9767087315	      709.5189630671	       48.6001698943	       -0.7000000000	       -0.0180000000	       -0.5600000000	        6.9049294141	       -1.0544276191	       18.2592564673	     -318.2449010815	       -9.6300432705	      608.1555103113	
        5.0200389996	        4.6833550534	       20.3544033963	       -1.7115564981	       -0.7000000000	       -0.0180000000	        0.5600000000	       82.5502322441	      710.4709989311	       48.8623483601	       -0.7000000000	       -0.0180000000	       -0.5600000000	        8.7147351815	       -1.3860416697	       23.1843413213	     -318.5829078739	       -9.0826245682	      607.7518103481	
        5.0220393350	        6.3576350059	       24.9015488028	       -1.9334990967	       -0.7000000000	       -0.0180000000	        0.5600000000	       84.1489290126	      711.2536607675	       49.1684098829	       -0.7000000000	       -0.0180000000	       -0.5600000000	       10.9250895138	       -1.8606575147	       29.1923788453	     -318.8440404225	       -8.5553858930	      607.1949175414	
        5.0240390703	        8.3474019512	       30.3431738436	       -2.1288255839	       -0.7000000000	       -0.0180000000	        0.5600000000	       85.7715832244	      711.8595748349	       49.5151455763	       -0.7000000000	       -0.0180000000	       -0.5600000000	       13.5717096114	       -2.5028001683	       36.3739415072	     -319.0253190128	       -8.0460793795	      606.4788531254	
        5.0260393656	       10.6382181547	       36.7351783688	       -2.2745659146	       -0.7000000000	       -0.0180000000	        0.5600000000	       87.4169675697	      712.2813897616	       49.8971387076	       -0.7000000000	       -0.0180000000	       -0.5600000000	       16.6822517022	       -3.3325496019	       44.7955174376	     -319.1235697351	       -7.5503326637	      605.5982038741	
        5.0280391811	       13.1939195020	       44.1124095254	       -2.3465155054	       -0.7000000000	       -0.0180000000	        0.5600000000	       89.0836704864	      712.5114039084	       50.3065370170	       -0.7000000000	       -0.0180000000	       -0.5600000000	       20.2743253750	       -4.3637498600	       54.4947259320	     -319.1352413758	       -7.0615971070	      604.5477056898	
        5.0300393965	       15.9563647825	       52.4853276139	       -2.3208053700	       -0.7000000000	       -0.0180000000	        0.5600000000	       90.7699952949	      712.5408079741	       50.7331654193	       -0.7000000000	       -0.0180000000	       -0.5600000000	       24.3538421007	       -5.6025071901	       65.4768640405	     -319.0561399555	       -6.5713599297	      603.3213844180	
        5.0320390918	       18.8478295475	       61.8378067562	       -2.1753176406	       -0.7000000000	       -0.0180000000	        0.5600000000	       92.4739936975	      712.3590134137	       51.1651181849	       -0.7000000000	       -0.0180000000	       -0.5600000000	       28.9137336096	       -7.0458329802	       77.7125229450	     -318.8812685823	       -6.0697546175	      601.9118757542	
        5.0340395072	       21.7753440554	       72.1258205587	       -1.8909632690	       -0.7000000000	       -0.0180000000	        0.5600000000	       94.1935739783	      711.9533490912	       51.5896071304	       -0.7000000000	       -0.0180000000	       -0.5600000000	       33.9331329964	       -8.6803250447	       91.1358759082	     -318.6048273718	       -5.5463721365	      600.3102386727	
        5.0360391225	       24.6360173940	       83.2769480538	       -1.4529278527	       -0.7000000000	       -0.0180000000	        0.5600000000	       95.9265472462	      711.3089843043	       51.9936653058	       -0.7000000000	       -0.0180000000	       -0.5600000000	       39.3772007670	      -10.4821948830	      105.6439963711	     -318.2202380598	       -4.9909784655	      598.5059757358	
        5.0380394180	       27.3225969865	       95.1913932116	       -0.8519281374	       -0.7000000000	       -0.0180000000	        0.5600000000	       97.6705114105	      710.4088927021	       52.3645703935	       -0.7000000000	       -0.0180000000	       -0.5600000000	       45.1978745507	      -12.4190195923	      121.0985079152	     -317.7201302520	       -4.3940711042	      596.4868914861	
        5.0400392332	       29.7288753861	      107.7454473469	       -0.0853893253	       -0.7000000000	       -0.0180000000	        0.5600000000	       99.4226258294	      709.2338266474	       52.6900336643	       -0.7000000000	       -0.0180000000	       -0.5600000000	       51.3357475694	      -14.4516929914	      137.3308195933	     -317.0963298227	       -3.7472239164	      594.2387613982	
        5.0420395686	       31.7548497191	      120.7974346581	        0.8417548741	       -0.7000000000	       -0.0180000000	        0.5600000000	      101.1794857414	      707.7624030916	       52.9583965923	       -0.7000000000	       -0.0180000000	       -0.5600000000	       57.7229074584	      -16.5360777365	      154.1508200110	     -316.3399412154	       -3.0433382942	      591.7451071045	
        5.0440391840	       33.3115943098	      134.1950753393	        1.9170159921	       -0.7000000000	       -0.0180000000	        0.5600000000	      102.9372288666	      705.9714147118	       53.1590181430	       -0.7000000000	       -0.0180000000	       -0.5600000000	       64.2862314772	      -18.6248186879	      171.3573612382	     -315.4415473708	       -2.2769351125	      588.9873744394	
        5.0460395193	       34.3256554865	      147.7828214413	        3.1212721604	       -0.7000000000	       -0.0180000000	        0.5600000000	      104.6917620887	      703.8363830923	       53.2826159623	       -0.7000000000	       -0.0180000000	       -0.5600000000	       70.9506584154	      -20.6695794248	      188.7483828413	     -314.3914363483	       -1.4442727108	      585.9455679273	
        5.0480392547	       34.7426856839	      161.4082199115	        4.4305240744	       -0.7000000000	       -0.0180000000	        0.5600000000	      106.4389179060	      701.3323463781	       53.3213562635	       -0.7000000000	       -0.0180000000	       -0.5600000000	       77.6422229789	      -22.6241095295	      206.1292653854	     -313.1798527891	       -0.5431643988	      582.5992616723	
        5.0500395102	       34.5299739006	      174.9273386864	        5.8181554285	       -0.7000000000	       -0.0180000000	        0.5600000000	      108.1744116427	      698.4347377947	       53.2686697073	       -0.7000000000	       -0.0180000000	       -0.5600000000	       84.2908470058	      -24.4477005152	      223.3194132453	     -311.7972836942	        0.4274133470	      578.9286587493	
